PathFileType	4	(X/Y/Z)	C:/Users/beibeiliu/ov580/test_trc/capture2\sequence.28_training_dense_right.trc
DataRate	CameraRate	NumFrames	NumMarkers	Units	OrigDataRate	OrigDataStartFrame	OrigNumFrames
120	120	20	19	mm	120	51	400
Frame#	Time	ThumbCMC			ThumbMCP			ThumbIP			ThumbTip			IndexMCP			IndexPIP			IndexTip			MiddleMCP			MiddlePIP			MiddleTip			RingMCP			RingPIP			RingTip			PinkyMCP			PinkyPIP			PinkyTip			BackHand1			BackHand2			BackHand3	
		X0	Y0	Z0	X1	Y1	Z1	X2	Y2	Z2	X3	Y3	Z3	X4	Y4	Z4	X5	Y5	Z5	X6	Y6	Z6	X7	Y7	Z7	X8	Y8	Z8	X9	Y9	Z9	X10	Y10	Z10	X11	Y11	Z11	X12	Y12	Z12	X13	Y13	Z13	X14	Y14	Z14	X15	Y15	Z15	X16	Y16	Z16	X17	Y17	Z17	X18	Y18	Z18	
50	0.416667	160.669	29.4072	38.3946	136.354	41.1621	12.2368	120.777	33.0876	-8.18538	105.504	13.8896	-22.6815	156.853	-2.85335	-25.3391	142.994	4.34744	-47.7704	125.08	11.9846	-63.9049	138.601	-13.3222	-27.3511	125.924	-4.30002	-46.4871	104.053	7.24615	-65.5284	119.672	-20.6774	-16.6524	108.527	-10.7656	-36.1198	91.8267	3.52336	-57.4329	108.986	-21.1697	-2.42857	99.875	-9.43857	-22.2196	83.7956	4.25061	-37.9354	141.67	-29.2292	33.0657	146.326	-25.4111	62.9294	167.651	-11.0312	45.3484	
51	0.425	162.134	30.7722	41.9189	138.787	36.7692	11.6091	123.035	30.1451	-7.42365	108.706	12.802	-22.2936	156.481	-4.21444	-22.002	142.849	2.61339	-43.93	127.433	11.6323	-65.784	139.99	-14.5847	-22.9058	126.552	-5.68027	-46.0619	108.88	8.98599	-69.9756	119.877	-21.287	-15.5934	110.158	-8.49473	-40.1591	93.7537	1.7273	-58.7441	110.005	-21.9256	-4.42166	97.3808	-13.5094	-20.2478	87.2195	2.21913	-43.6262	141.645	-30.3556	33.062	143.448	-27.4029	64.8538	170.697	-11.6349	43.7274	
52	0.433333	163.481	28.666	41.005	140.486	38.8079	12.2247	125.219	27.894	-8.4909	112.06	15.2937	-23.5144	154.684	-3.76433	-25.1986	144.384	3.42331	-48.4793	122.794	8.78945	-66.7823	138.496	-15.8054	-26.0025	128.244	-5.18083	-47.0068	107.089	5.46268	-68.2068	122.844	-19.011	-19.1322	110.496	-9.89675	-38.0672	95.5968	0.675125	-59.4438	111.93	-23.0149	-3.13953	101.509	-13.182	-22.6438	91.0312	-2.36273	-43.0634	140.914	-32.4784	34.7965	147.637	-24.7861	66.3008	168.321	-12.157	43.5959	
53	0.441667	163.772	27.5482	42.5343	143.364	39.4863	12.9071	128.733	31.2576	-7.96666	113.852	12.8071	-25.9434	157.459	-4.54397	-21.8672	144.079	-0.252926	-43.2438	125.805	5.56622	-62.463	142.267	-14.6407	-24.6852	125.115	-6.81026	-49.412	108.208	2.71666	-67.5789	121.373	-20.9044	-19.3936	110.208	-12.3933	-36.9624	99.829	1.87804	-60.3678	110.425	-25.1044	-2.15395	99.1493	-16.3295	-19.9528	94.5295	-6.7388	-42.0014	142.75	-33.0946	37.1893	148.254	-27.2891	65.0345	172.65	-12.5694	42.8105	
54	0.45	162.987	24.8134	43.8752	145.294	36.4104	16.9752	131.661	28.6811	-9.61182	119.255	17.6808	-23.7468	155.431	-5.50596	-25.0842	143.523	1.0397	-48.2252	127.659	5.23392	-64.0375	140.694	-14.8008	-26.3259	125.525	-5.84125	-49.5662	112.471	4.47015	-67.8464	124.017	-18.8896	-19.5736	109.293	-13.2039	-36.4611	99.3668	-1.34529	-56.843	111.164	-23.8034	-5.69239	101.178	-13.8975	-22.5622	91.1385	-6.68851	-46.1611	144.439	-31.4109	33.2489	147.532	-28.5154	65.4383	172.95	-13.8137	40.1258	
55	0.458333	163.774	23.2951	42.8844	147.661	33.0302	14.1923	135.901	31.1551	-8.672	122.083	15.8502	-26.6236	157.994	-4.25308	-24.7425	143.061	0.0426163	-45.8391	127.969	4.73065	-63.3249	140.437	-15.2546	-25.331	126.813	-6.35166	-47.1638	108.155	4.7535	-69.6811	122.466	-22.0155	-16.1396	112.688	-9.33646	-39.7814	96.0002	-2.06979	-58.1293	112.42	-24.3355	-3.00041	99.4115	-15.1975	-22.559	95.2993	-7.42919	-43.6355	144.09	-33.9571	33.1486	148.048	-27.9338	65.3827	174.447	-12.1207	40.1775	
56	0.466667	166.591	22.598	42.758	150.919	34.5277	14.1852	140.862	29.1203	-10.0076	129	19.7939	-28.9316	156.495	-5.63715	-24.1422	146.97	0.943313	-44.2929	128.259	6.57397	-65.4749	141.32	-15.7373	-24.5125	126.492	-7.80794	-44.2601	110.599	5.09393	-67.1869	126.167	-20.2691	-16.2831	109.506	-12.7818	-37.4031	95.9785	-1.63686	-55.5075	114.37	-23.5456	-3.68188	100.045	-16.3319	-21.1444	89.7547	-7.41957	-42.2774	143.274	-33.5638	36.1064	149.586	-29.4654	64.5635	171.997	-14.7296	40.9481	
57	0.475	168.489	23.8551	44.8378	155.641	34.0958	13.0576	146.052	31.1928	-14.0251	136.412	22.6423	-27.3476	160.743	-4.47929	-22.6387	145.709	0.0060967	-44.8407	126.375	7.7999	-63.6346	140.128	-15.9471	-23.2814	126.996	-6.04634	-47.0136	109.793	4.99219	-65.1678	124.193	-21.8505	-14.6509	111.944	-12.524	-35.2897	100.608	1.72333	-56.4878	111.337	-25.5377	-4.79611	104.607	-14.3654	-20.0452	92.2225	-5.64346	-44.2487	147.653	-32.2449	36.0967	149.498	-29.9814	62.7405	172.5	-15.0181	42.2216	
58	0.483333	169.285	22.5848	43.899	158.145	36.1782	17.3794	152.412	35.1419	-9.66746	141.083	23.6809	-29.2525	159.648	-4.34341	-20.9084	147.994	2.99337	-46.5854	129.707	9.84295	-62.9993	142.727	-15.7359	-21.3991	124.759	-6.76839	-46.1786	110.941	8.73647	-67.8077	128.813	-19.6454	-15.7934	109.97	-11.3421	-35.2701	100.038	0.806239	-53.5076	112.724	-25.8545	-2.51213	102.837	-15.0089	-19.6666	92.2952	-7.80923	-41.1755	145.194	-32.6499	38.4149	150.947	-29.4091	68.5802	174.148	-14.0128	45.0012	
59	0.491667	169.06	22.3917	45.8099	162.189	37.0436	16.8583	152.925	28.9239	-8.68687	146.125	25.2336	-28.2703	162.468	-2.17479	-22.1379	146.879	2.2052	-43.522	125.839	8.53765	-61.5102	141.178	-14.2906	-24.3915	126.263	-5.71156	-45.6995	110.52	6.67046	-63.8631	125.302	-21.4252	-15.7155	110.034	-12.3764	-34.5913	96.2917	-0.223798	-51.8728	112.974	-27.0016	-0.293121	101.459	-16.5081	-17.3023	93.5757	-5.84496	-36.8897	146.643	-32.4551	33.5737	152.311	-29.7302	67.8868	174.412	-14.8322	45.8109	
60	0.5	171.623	25.5841	47.1723	161.592	32.4271	19.037	157.949	31.7687	-8.6807	151.068	26.6232	-31.6377	159.435	-4.89818	-23.9196	145.883	3.97648	-47.4569	127.106	11.5481	-65.1558	144.628	-14.4166	-22.0939	130.203	-3.90138	-44.3171	105.52	8.5574	-66.0393	123.464	-20.8043	-18.055	110.149	-11.353	-33.5893	95.178	1.07954	-53.172	111.749	-27.0447	-0.217521	104.562	-12.2297	-19.8911	90.6291	-7.70728	-37.0822	146.535	-34.752	35.3193	152.194	-30.6938	66.2356	174.721	-15.2299	41.8894	
61	0.508333	171.814	23.1533	44.0392	165.342	37.1	18.3835	160.769	33.3168	-10.6347	152.292	23.9105	-28.745	162.682	-3.56014	-20.6809	144.046	1.17048	-45.5073	129.902	10.8101	-62.6296	141.233	-15.6808	-20.3287	129.003	-3.73082	-46.4236	110.574	9.63565	-65.2833	127.143	-18.9262	-16.7619	113.65	-11.5515	-33.2639	97.2162	-0.0675	-52.5406	114.611	-24.0152	-3.72212	102.865	-15.5354	-17.1238	92.5638	-4.01555	-42.3242	145.235	-33.2202	34.0575	151.459	-30.1491	64.8429	176.673	-12.3365	42.3281	
62	0.516667	173.885	23.9714	45.5488	166.198	34.5827	18.626	162.039	30.2164	-12.0239	155.017	24.2868	-30.7089	160.263	-4.70968	-19.5521	146.086	-0.0932166	-41.953	129.915	10.0162	-64.5261	140.628	-15.566	-25.9951	129.594	-4.7819	-45.585	107.58	7.71524	-66.674	124.96	-21.1833	-14.5285	113.537	-9.44748	-37.6274	96.2983	1.64289	-57.3095	112.003	-26.7152	-1.28047	103.467	-13.8816	-20.5245	94.1899	-2.97712	-41.8086	146.896	-32.1776	36.7616	150.705	-31.0636	67.4967	173.536	-12.7619	41.5775	
63	0.525	173.953	24.1499	44.1201	166.982	33.5023	17.632	163.868	31.6731	-10.3763	154.137	23.4572	-33.1792	159.436	-4.92225	-20.2391	149.785	2.10303	-47.4326	127.093	6.99612	-64.1251	141.264	-15.4195	-23.0552	129.59	-7.16075	-43.5092	106.985	4.2897	-68.6661	125.094	-21.5582	-14.0293	111.323	-12.4179	-34.7284	97.6195	-1.21473	-54.01	112.687	-26.359	-1.27006	106.232	-14.9018	-17.6196	94.255	-7.89923	-40.6702	147.366	-34.1676	33.3032	152	-29.4487	67.2013	175.271	-10.8849	41.0655	
64	0.533333	173.009	25.0376	50.3122	168.773	34.6147	16.281	163.832	34.3775	-7.82265	152.955	22.3409	-30.191	164.41	-2.24975	-20.4717	149.225	2.62018	-48.316	129.336	5.6939	-65.1996	145.346	-12.7823	-24.5733	128.236	-7.49167	-44.728	113.377	3.72972	-68.2426	126.896	-20.5559	-15.2341	110.523	-12.8074	-38.6907	101.251	-2.50787	-54.8587	115.444	-24.3392	-2.32853	105.176	-14.9192	-20.6846	94.0369	-10.6996	-41.004	146.212	-33.5205	33.0605	152.508	-30.6546	65.8253	174.278	-11.6901	43.6009	
65	0.541667	174.196	25.646	48.4022	166.184	33.8464	20.2436	163.049	32.891	-6.79228	151.403	23.577	-26.39	163.085	-2.15687	-19.6438	145.938	-0.35138	-44.6956	131.976	2.4564	-63.1519	141.147	-15.252	-26.074	129.441	-7.68575	-44.4834	115.669	2.54143	-67.5237	128.408	-17.9782	-18.0717	115.669	-10.9998	-37.3566	102.74	-1.30494	-58.858	115.72	-22.6328	-3.98985	103.437	-13.9921	-22.6307	97.0165	-8.63401	-40.949	147.239	-32.2518	35.7456	153.767	-27.9259	66.3282	174.585	-14.3746	40.9049	
66	0.55	174.917	26.1013	48.0186	165.85	35.7132	21.4705	161.473	32.5529	-9.20332	148.497	22.1155	-25.5289	159.823	-2.15873	-21.766	151.412	0.722357	-43.9277	132.649	2.81231	-67.7059	143.6	-13.4912	-22.9173	129.997	-7.42804	-45.7211	112.498	0.948073	-70.8468	125.944	-18.6207	-19.7771	113.312	-11.5446	-39.9539	103.631	-2.99547	-58.4681	115.431	-22.7236	-3.1795	106.652	-14.6879	-18.5488	94.0965	-9.50843	-42.9149	144.898	-33.5146	32.1623	151.116	-28.9656	63.3939	174.139	-12.0427	43.2527	
67	0.558333	176.278	26.2261	48.8285	166.037	35.5325	21.0654	157.897	30.1058	-6.35218	146.802	23.9444	-24.9189	159.964	-2.37341	-20.8319	150.202	1.28552	-45.1572	131.982	1.00983	-65.4806	143.86	-10.2715	-27.1096	129.783	-7.19175	-45.2478	114.586	-0.548685	-68.8326	126.72	-19.2064	-14.5955	115.919	-11.7496	-36.0592	103.586	-3.96071	-58.2557	112.803	-23.1019	-1.65877	106.647	-12.1033	-23.6852	96.0616	-9.89897	-42.4629	145.885	-30.8564	35.1534	150.579	-31.2969	66.2537	176.071	-11.6894	40.0686	
68	0.566667	175.198	25.9335	49.5773	165.397	36.0041	23.9924	158.973	36.2724	-7.27752	145.192	25.0169	-24.8924	160.882	-1.34645	-18.0459	149.411	-1.08653	-41.6174	136.611	2.32525	-65.0382	141.246	-12.5549	-26.6688	129.702	-6.49083	-45.0358	115.507	-0.211836	-70.2557	125.31	-18.5565	-16.1237	117.045	-10.1193	-36.4944	105.883	-3.28182	-62.1542	114.361	-20.6069	-2.60154	108.067	-12.1939	-18.5073	98.7343	-7.17096	-45.3587	147.318	-29.2708	34.834	150.668	-30.4488	62.2039	172.295	-14.3716	40.6585	
69	0.575	172.647	22.0876	47.357	165.028	35.6749	23.8646	156.317	33.0693	-7.12495	142.743	25.2774	-21.3216	162.425	0.548476	-23.118	151.516	1.56386	-44.2304	137.707	2.54137	-65.3995	144.155	-10.2743	-25.2576	132.908	-4.09826	-46.7169	114.004	-0.288351	-70.5183	126.996	-16.9513	-14.9409	118.204	-8.62489	-35.7144	102.69	-5.07479	-60.2441	116.485	-17.9891	-4.10933	104.507	-14.0249	-19.0222	97.0936	-8.74777	-41.7185	144.547	-30.7557	31.9244	154.833	-28.1679	63.9394	175.289	-10.5469	43.652	
